<?xml version="1.0" encoding="UTF-8"?>
<svg version="1.1" xmlns="http://www.w3.org/2000/svg" width="64" height="64">
<path d="M0 0 C1.49956993 -0.00786278 1.49956993 -0.00786278 3.0294342 -0.0158844 C5.1399747 -0.02229691 7.25055097 -0.0209776 9.36108398 -0.01245117 C12.58316968 -0.0039445 15.80348009 -0.03270895 19.02539062 -0.06445312 C21.07942655 -0.06606541 23.13346561 -0.06548709 25.1875 -0.0625 C26.62681129 -0.07935097 26.62681129 -0.07935097 28.09519958 -0.09654236 C33.76110133 -0.03777 37.27388526 0.48277906 41.66015625 4.43359375 C45.62674107 8.94938994 45.11117302 14.06654582 45.09375 19.7734375 C45.09899185 20.77315079 45.1042337 21.77286407 45.1096344 22.8028717 C45.11604691 24.9134122 45.1147276 27.02398847 45.10620117 29.13452148 C45.0976945 32.35660718 45.12645895 35.57691759 45.15820312 38.79882812 C45.15981541 40.85286405 45.15923709 42.90690311 45.15625 44.9609375 C45.16748398 45.92047836 45.17871796 46.88001923 45.19029236 47.86863708 C45.13152 53.53453883 44.61097094 57.04732276 40.66015625 61.43359375 C36.14436006 65.40017857 31.02720418 64.88461052 25.3203125 64.8671875 C23.82074257 64.87505028 23.82074257 64.87505028 22.2908783 64.8830719 C20.1803378 64.88948441 18.06976153 64.8881651 15.95922852 64.87963867 C12.73714282 64.871132 9.51683241 64.89989645 6.29492188 64.93164062 C4.24088595 64.93325291 2.18684689 64.93267459 0.1328125 64.9296875 C-0.82672836 64.94092148 -1.78626923 64.95215546 -2.77488708 64.96372986 C-8.44078883 64.9049575 -11.95357276 64.38440844 -16.33984375 60.43359375 C-20.30642857 55.91779756 -19.79086052 50.80064168 -19.7734375 45.09375 C-19.77867935 44.09403671 -19.7839212 43.09432343 -19.7893219 42.0643158 C-19.79573441 39.9537753 -19.7944151 37.84319903 -19.78588867 35.73266602 C-19.777382 32.51058032 -19.80614645 29.29026991 -19.83789062 26.06835938 C-19.83950291 24.01432345 -19.83892459 21.96028439 -19.8359375 19.90625 C-19.84717148 18.94670914 -19.85840546 17.98716827 -19.86997986 16.99855042 C-19.8112075 11.33264867 -19.29065844 7.81986474 -15.33984375 3.43359375 C-10.82404756 -0.53299107 -5.70689168 -0.01742302 0 0 Z " fill="#172CD7" transform="translate(19.33984375,-0.43359375)"/>
<path d="M0 0 C0.84755859 0.00966797 1.69511719 0.01933594 2.56835938 0.02929688 C3.44943359 0.05443359 4.33050781 0.07957031 5.23828125 0.10546875 C6.13095703 0.11900391 7.02363281 0.13253906 7.94335938 0.14648438 C10.14644291 0.18182796 12.34830707 0.23116382 14.55078125 0.29296875 C15.82067312 5.24469476 14.87816311 7.72440437 12.55078125 12.29296875 C9.70464101 15.13910899 6.74708983 14.74875951 2.92578125 14.91796875 C1.86617187 14.97597656 1.86617187 14.97597656 0.78515625 15.03515625 C-0.95920399 15.12944599 -2.70417566 15.21229766 -4.44921875 15.29296875 C-5.43921875 19.25296875 -6.42921875 23.21296875 -7.44921875 27.29296875 C-6.45019531 27.28136719 -5.45117188 27.26976563 -4.421875 27.2578125 C-3.13152344 27.24878906 -1.84117188 27.23976563 -0.51171875 27.23046875 C0.77605469 27.21886719 2.06382813 27.20726563 3.390625 27.1953125 C6.55078125 27.29296875 6.55078125 27.29296875 7.55078125 28.29296875 C8.00297069 33.15400528 6.98779425 36.1013064 4.55078125 40.29296875 C2.99471374 41.84903626 1.49120754 41.42267644 -0.66796875 41.42578125 C-1.94220703 41.42771484 -1.94220703 41.42771484 -3.2421875 41.4296875 C-4.58216797 41.42388672 -4.58216797 41.42388672 -5.94921875 41.41796875 C-6.84253906 41.42183594 -7.73585938 41.42570312 -8.65625 41.4296875 C-9.50574219 41.42839844 -10.35523438 41.42710938 -11.23046875 41.42578125 C-12.01486328 41.42465332 -12.79925781 41.42352539 -13.60742188 41.42236328 C-15.44921875 41.29296875 -15.44921875 41.29296875 -16.44921875 40.29296875 C-16.68451287 34.76355699 -16.68451287 34.76355699 -15.44921875 32.29296875 C-16.41859375 32.31359375 -17.38796875 32.33421875 -18.38671875 32.35546875 C-21.44921875 32.29296875 -21.44921875 32.29296875 -22.44921875 31.29296875 C-21.95493799 24.62017842 -21.20250342 15.93263851 -17.078125 10.48046875 C-14.39774323 8.52642545 -11.64311146 9.11218237 -8.44921875 9.29296875 C-8.34609375 8.36484375 -8.24296875 7.43671875 -8.13671875 6.48046875 C-7.04608592 1.42389835 -5.12243234 -0.10313622 0 0 Z " fill="#EAF845" transform="translate(35.44921875,11.70703125)"/>
<path d="M0 0 C0.84755859 0.00966797 1.69511719 0.01933594 2.56835938 0.02929688 C3.44943359 0.05443359 4.33050781 0.07957031 5.23828125 0.10546875 C6.13095703 0.11900391 7.02363281 0.13253906 7.94335938 0.14648438 C10.14644291 0.18182796 12.34830707 0.23116382 14.55078125 0.29296875 C14.22078125 1.28296875 13.89078125 2.27296875 13.55078125 3.29296875 C3.65078125 3.78796875 3.65078125 3.78796875 -6.44921875 4.29296875 C-6.77921875 6.27296875 -7.10921875 8.25296875 -7.44921875 10.29296875 C-7.77921875 10.95296875 -8.10921875 11.61296875 -8.44921875 12.29296875 C-10.515625 12.70703125 -10.515625 12.70703125 -13.01171875 12.91796875 C-14.25115234 13.03011719 -14.25115234 13.03011719 -15.515625 13.14453125 C-16.47275391 13.21800781 -16.47275391 13.21800781 -17.44921875 13.29296875 C-17.77921875 15.27296875 -18.10921875 17.25296875 -18.44921875 19.29296875 C-19.13671875 17.60546875 -19.13671875 17.60546875 -19.44921875 15.29296875 C-18.30134934 13.04940581 -17.23964205 11.08339205 -15.44921875 9.29296875 C-13.11624442 9.25203938 -10.7821665 9.25055152 -8.44921875 9.29296875 C-8.34609375 8.36484375 -8.24296875 7.43671875 -8.13671875 6.48046875 C-7.04608592 1.42389835 -5.12243234 -0.10313622 0 0 Z " fill="#E3F257" transform="translate(35.44921875,11.70703125)"/>
<path d="M0 0 C1.0326802 2.78823655 1.04509293 3.8677274 0.0625 6.75 C-0.288125 7.4925 -0.63875 8.235 -1 9 C-5.455 9.495 -5.455 9.495 -10 10 C-10.33 11.98 -10.66 13.96 -11 16 C-11.6875 14.3125 -11.6875 14.3125 -12 12 C-10.85213059 9.75643706 -9.7904233 7.7904233 -8 6 C-5.66702567 5.95907063 -3.33294775 5.95758277 -1 6 C-0.67 4.02 -0.34 2.04 0 0 Z " fill="#CCD96E" transform="translate(28,15)"/>
<path d="" fill="#1330D8" transform="translate(0,0)"/>
<path d="" fill="#1330D8" transform="translate(0,0)"/>
<path d="" fill="#1330D8" transform="translate(0,0)"/>
<path d="" fill="#1330D8" transform="translate(0,0)"/>
<path d="" fill="#1330D8" transform="translate(0,0)"/>
<path d="" fill="#1330D8" transform="translate(0,0)"/>
<path d="" fill="#1330D8" transform="translate(0,0)"/>
<path d="" fill="#1330D8" transform="translate(0,0)"/>
<path d="" fill="#1330D8" transform="translate(0,0)"/>
<path d="" fill="#1330D8" transform="translate(0,0)"/>
<path d="" fill="#1330D8" transform="translate(0,0)"/>
<path d="" fill="#1330D8" transform="translate(0,0)"/>
<path d="" fill="#1330D8" transform="translate(0,0)"/>
<path d="" fill="#1330D8" transform="translate(0,0)"/>
<path d="" fill="#1330D8" transform="translate(0,0)"/>
<path d="" fill="#1330D8" transform="translate(0,0)"/>
<path d="" fill="#1330D8" transform="translate(0,0)"/>
<path d="" fill="#1330D8" transform="translate(0,0)"/>
<path d="" fill="#1330D8" transform="translate(0,0)"/>
<path d="" fill="#1330D8" transform="translate(0,0)"/>
<path d="" fill="#1330D8" transform="translate(0,0)"/>
<path d="" fill="#1330D8" transform="translate(0,0)"/>
<path d="" fill="#1330D8" transform="translate(0,0)"/>
<path d="" fill="#1330D8" transform="translate(0,0)"/>
</svg>
