<?xml version="1.0" encoding="UTF-8"?>
<svg version="1.1" xmlns="http://www.w3.org/2000/svg" width="64" height="64">
<path d="M0 0 C21.12 0 42.24 0 64 0 C64 21.12 64 42.24 64 64 C42.88 64 21.76 64 0 64 C0 42.88 0 21.76 0 0 Z M28.9375 13.84375 C27.90256666 16.22409667 27.35666262 18.43202914 27 21 C25.906875 20.9175 24.81375 20.835 23.6875 20.75 C20.0636911 20.59078554 20.0636911 20.59078554 18.41015625 22.58203125 C16.64224757 25.61343145 15.71481853 28.56423522 14.75 31.9375 C14.39421875 33.14277344 14.0384375 34.34804688 13.671875 35.58984375 C13.02216328 38.88750845 13.05773216 40.81682597 14 44 C15.98 44 17.96 44 20 44 C19.70703125 46.05078125 19.4140625 48.1015625 19.12109375 50.15234375 C19.08113281 50.76207031 19.04117187 51.37179688 19 52 C21.15011953 54.15011953 25.89797798 53.18520645 28.875 53.1875 C29.70386719 53.19974609 30.53273438 53.21199219 31.38671875 53.22460938 C32.58361328 53.22750977 32.58361328 53.22750977 33.8046875 53.23046875 C34.53671387 53.23457764 35.26874023 53.23868652 36.02294922 53.24291992 C38.32021044 53.11086847 38.32021044 53.11086847 41 51 C42.58170326 47.25386071 43.34838355 44.06447474 43 40 C41.86298403 38.63467451 41.86298403 38.63467451 38.83984375 38.90234375 C37.55207031 38.91394531 36.26429687 38.92554687 34.9375 38.9375 C33.64714844 38.94652344 32.35679688 38.95554687 31.02734375 38.96484375 C30.02832031 38.97644531 29.02929688 38.98804687 28 39 C28.99 34.71 29.98 30.42 31 26 C32.04800781 26.03480469 33.09601562 26.06960937 34.17578125 26.10546875 C35.55467147 26.13360937 36.93357902 26.16090924 38.3125 26.1875 C39.00279297 26.21263672 39.69308594 26.23777344 40.40429688 26.26367188 C44.39495058 26.35100472 44.39495058 26.35100472 47.90234375 24.66796875 C50.11110489 21.31159507 51.21860948 18.30034948 50.546875 14.3046875 C50.36640625 13.54414063 50.1859375 12.78359375 50 12 C46.89614789 11.88386796 43.79285338 11.81277971 40.6875 11.75 C39.80642578 11.71648438 38.92535156 11.68296875 38.01757812 11.6484375 C33.03035802 11.40955632 33.03035802 11.40955632 28.9375 13.84375 Z " fill="#000000" transform="translate(0,0)"/>
</svg>
