<?xml version="1.0" encoding="UTF-8"?>
<svg version="1.1" xmlns="http://www.w3.org/2000/svg" width="600" height="600">
<path d="M0 0 C3.57022841 1.11569638 4.08620983 1.80072627 6 4.9375 C6.86269149 7.35303619 7.64209196 9.73474972 8.375 12.1875 C11.68613244 22.52299886 15.57159507 29.19462953 25 34.9375 C27.77998786 36.32287837 30.60526748 37.60052622 33.4375 38.875 C45.54097808 44.34456306 55.24601704 51.51355464 60.31640625 64.2421875 C61.28970916 67.12479193 62.1889356 70.00557776 63 72.9375 C65.0633966 73.16102801 65.0633966 73.16102801 66.3828125 71.6875 C66.95773437 71.11 67.53265625 70.5325 68.125 69.9375 C72.0693471 66.39696175 76.23696471 63.99442892 80.9375 61.625 C81.92097412 61.11936523 81.92097412 61.11936523 82.92431641 60.60351562 C91.41958227 56.45129978 99.52582995 55.72281313 108.875 55.5625 C124.98387925 55.01978944 134.08054435 50.2233129 145.125 38.5625 C145.89070312 37.70914063 146.65640625 36.85578125 147.4453125 35.9765625 C150.67511205 33.3986491 152.90231496 33.01812575 157 32.9375 C159.678348 35.09182339 161.46254419 36.86258839 163 39.9375 C164.51035948 61.46012263 155.91087773 87.02118338 142.625 103.875 C126.8760632 121.86222748 106.97715678 132.28000466 83.52319336 135.98681641 C79.96105728 136.27233334 79.96105728 136.27233334 77 137.9375 C76.90244193 139.31635848 76.86794019 140.69975236 76.859375 142.08203125 C76.42046728 167.07036009 71.19140633 191.07059879 64 214.9375 C63.73493652 215.81809082 63.46987305 216.69868164 63.19677734 217.60595703 C53.28840982 249.70409808 35.92857483 278.53608269 13 302.9375 C8.90226472 307.52344202 4.91355037 312.19380258 1 316.9375 C1.96383775 319.41237422 2.52317884 320.67872084 4.89746094 321.96728516 C6.0542334 322.34312744 6.0542334 322.34312744 7.234375 322.7265625 C8.10852051 323.02328857 8.98266602 323.32001465 9.88330078 323.62573242 C10.82931152 323.93486572 11.77532227 324.24399902 12.75 324.5625 C21.03226458 327.42615864 29.12401942 330.54617938 37.125 334.125 C38.5186377 334.73045654 38.5186377 334.73045654 39.94042969 335.34814453 C44.6738294 337.49865123 48.36550865 339.22509997 51 343.9375 C51.48382252 347.11224549 50.94988257 349.88232215 50 352.9375 C45.34579529 359.2343652 38.58810405 361.08264867 31.19018555 362.26904297 C30.36429932 362.38650879 29.53841309 362.50397461 28.6875 362.625 C27.80940674 362.7502002 26.93131348 362.87540039 26.02661133 363.00439453 C5.31949486 365.74249485 -16.25043601 363.99493274 -35.91796875 356.828125 C-39.58351639 355.74113703 -39.58351639 355.74113703 -43 356.9375 C-45.0007485 358.39258982 -46.9029897 359.87202727 -48.8125 361.4375 C-88.42833555 392.7377209 -141.45061849 401.41180585 -190.6875 395.75 C-215.12635867 392.63678164 -238.33085185 385.69173405 -260 373.9375 C-260.99725098 373.40769531 -260.99725098 373.40769531 -262.01464844 372.8671875 C-280.99841702 362.76189757 -297.41373872 349.71291531 -313 334.9375 C-313.50176758 334.46441406 -314.00353516 333.99132812 -314.52050781 333.50390625 C-322.51304686 325.91741902 -329.46203968 317.80274347 -336 308.9375 C-337.17369141 307.34615234 -337.17369141 307.34615234 -338.37109375 305.72265625 C-344.24609266 297.48543941 -349.29940947 288.88898558 -354 279.9375 C-354.34417969 279.28330078 -354.68835938 278.62910156 -355.04296875 277.95507812 C-378.58346244 232.45247634 -383.75404359 177.66601138 -368.34863281 128.87451172 C-360.50561017 104.82374797 -346.58090046 83.92197923 -329 65.9375 C-328.33871094 65.21433594 -327.67742187 64.49117188 -326.99609375 63.74609375 C-304.12846805 39.2979842 -268.80513177 26.90548127 -236 24.9375 C-231.05593463 24.79713721 -226.11676151 24.75166999 -221.17089844 24.75219727 C-218.90019589 24.75002411 -216.62999126 24.73184525 -214.359375 24.71289062 C-206.98930874 24.68559112 -199.81527575 24.9519462 -192.5078125 25.94921875 C-179.43507461 27.68653456 -170.66559251 25.83889122 -158.4375 21.1875 C-115.06011149 4.83041728 -115.06011149 4.83041728 -94.625 11.25 C-91.52032006 12.69528204 -90.19755753 13.53097227 -88 15.9375 C-90.42664669 18.56636724 -92.9602571 20.64382969 -95.875 22.6875 C-101.68052785 26.97665864 -106.66613946 32.67537041 -108 39.9375 C-108.08087886 46.11895593 -106.72044848 51.92253931 -103 56.9375 C-98.05491464 61.40120537 -92.59476061 65.07112756 -87.06835938 68.7734375 C-69.44711736 80.9260182 -54.88089683 96.89654765 -39.95556641 112.09838867 C-21.55847294 130.83956833 -21.55847294 130.83956833 -0.125 145.875 C0.473125 146.23400391 1.07125 146.59300781 1.6875 146.96289062 C9.80751924 151.85258577 9.80751924 151.85258577 19 152.9375 C21.34530753 147.41105726 23.46861765 141.81820989 25.375 136.125 C25.73335938 135.06667969 26.09171875 134.00835937 26.4609375 132.91796875 C27.11379751 129.30831524 26.93079737 128.04960784 25 124.9375 C22.91162146 122.94692124 20.63905654 121.26353145 18.3125 119.5625 C17.0303009 118.58497706 15.7503242 117.60453172 14.47265625 116.62109375 C13.86437988 116.15429199 13.25610352 115.68749023 12.62939453 115.20654297 C-4.56986397 101.81101619 -13.77167691 80.7178468 -16.70263672 59.60546875 C-18.92039444 39.70755714 -16.65927553 20.17535393 -6 2.9375 C-3.55697709 -0.07410369 -3.55697709 -0.07410369 0 0 Z M-339.31958008 146.81689453 C-343.46430888 152.04733393 -342.0088576 160.10993224 -341.375 166.375 C-341.28508789 167.27460449 -341.19517578 168.17420898 -341.10253906 169.10107422 C-339.12170313 187.14766203 -335.18007556 204.8685486 -329 221.9375 C-328.56929199 223.13270264 -328.56929199 223.13270264 -328.12988281 224.35205078 C-321.59727227 242.17371856 -313.24552667 259.5868102 -302 274.9375 C-301.24332031 275.97777344 -300.48664063 277.01804687 -299.70703125 278.08984375 C-285.51991146 297.22988026 -268.54495932 312.44532591 -249 325.9375 C-247.46472656 327.02611328 -247.46472656 327.02611328 -245.8984375 328.13671875 C-233.34963051 336.66916716 -217.94517773 341.20334613 -202.7734375 339.55078125 C-197.15240989 338.30782162 -193.17353221 335.69779831 -190 330.9375 C-190.22947083 325.20768291 -192.12863741 321.25979506 -194.9375 316.4375 C-198.46602663 310.31465414 -201.27395279 304.43437571 -201.3125 297.1875 C-201.33763672 296.08148438 -201.33763672 296.08148438 -201.36328125 294.953125 C-200.89882209 292.37612578 -200.06197911 291.50945584 -198 289.9375 C-183.0593357 287.3391236 -164.95604153 302.07246047 -153.453125 310.046875 C-144.26976539 316.55425508 -135.34242476 323.4226815 -126.42993164 330.29394531 C-106.58973758 345.55354016 -88.8979314 352.11218331 -63.6875 352.125 C-62.40037109 352.13724609 -61.11324219 352.14949219 -59.78710938 352.16210938 C-58.56185547 352.16404297 -57.33660156 352.16597656 -56.07421875 352.16796875 C-54.95619873 352.17207764 -53.83817871 352.17618652 -52.6862793 352.18041992 C-49.84838405 352.21291703 -49.84838405 352.21291703 -48 349.9375 C-48.99966797 349.22787109 -48.99966797 349.22787109 -50.01953125 348.50390625 C-83.24462546 324.66548201 -107.27105205 293.97479817 -129.57958984 260.08544922 C-137.30704039 248.39997141 -145.38991146 236.99043723 -154 225.9375 C-154.42152344 225.39593262 -154.84304687 224.85436523 -155.27734375 224.29638672 C-168.62492219 207.37204106 -184.38346321 192.31966007 -202 179.9375 C-202.60021973 179.50324707 -203.20043945 179.06899414 -203.81884766 178.62158203 C-233.98109914 156.82891681 -272.91873972 141.51786476 -310.4375 141.625 C-312.12456055 141.60083008 -312.12456055 141.60083008 -313.84570312 141.57617188 C-327.36122003 141.48850358 -327.36122003 141.48850358 -339.31958008 146.81689453 Z M-95.703125 163.2890625 C-97.24960317 165.01854292 -97.24960317 165.01854292 -97.75 168.0625 C-96.74052716 171.93214587 -95.3367869 172.77632279 -92 174.9375 C-88.63789749 175.71283491 -85.38696416 176.2154707 -81.97070312 176.62695312 C-76.57520256 177.42988544 -73.85542918 179.03610445 -70 182.9375 C-67.9607979 186.15483148 -67.80017579 188.52592386 -67.9453125 192.296875 C-67.96980469 193.33070313 -67.99429687 194.36453125 -68.01953125 195.4296875 C-68.08934713 197.58622253 -68.16735439 199.74250931 -68.25390625 201.8984375 C-68.42803132 210.15401457 -67.1461805 215.25039723 -61.7734375 221.546875 C-53.85060419 228.61806825 -46.65693551 232.75943778 -35.8125 232.328125 C-29.94897532 231.51374657 -24.47313811 229.75586124 -19.68359375 226.234375 C-17.26765585 222.93838548 -17.50242744 220.95603094 -18 216.9375 C-19.01912312 214.24735657 -20.04458517 211.89557225 -21.375 209.375 C-21.73295654 208.68172607 -22.09091309 207.98845215 -22.4597168 207.27416992 C-32.19946807 188.94605184 -48.32842812 166.38676588 -68.5 159.125 C-78.58802004 156.17754371 -87.64280768 155.70940631 -95.703125 163.2890625 Z M-91.75 186.5625 C-94.25897534 188.76764149 -94.25897534 188.76764149 -94.5 191.9375 C-93.9491517 195.2425898 -93.44464867 196.66144779 -91 198.9375 C-88.6433774 200.02555146 -88.6433774 200.02555146 -86 199.9375 C-82.28738773 198.18636475 -82.28738773 198.18636475 -80 194.9375 C-79.49957854 192.02211971 -79.49957854 192.02211971 -80 188.9375 C-82.14670688 186.45341299 -82.14670688 186.45341299 -85 184.9375 C-88.95842116 184.59834713 -88.95842116 184.59834713 -91.75 186.5625 Z " fill="#000000" transform="translate(407,101.0625)"/>
</svg>
