<svg xmlns="http://www.w3.org/2000/svg" viewBox="0 0 64 64">
  <path d="M23 20c0-3 2.2-5 5-5 2.1 0 3.8 1.1 4.7 3 0.9-1.9 2.6-3 4.7-3 2.8 0 5 2 5 5v9" stroke="#FFFFFF" stroke-width="3" stroke-linecap="round" fill="none" />
  <path d="M18 30h-3c-1.7 0-3 1.3-3 3v5c0 1.7 1.3 3 3 3h4.3C21.6 49.8 26.9 54 32 54s10.4-4.2 12.7-13h4.3c1.7 0 3-1.3 3-3v-5c0-1.7-1.3-3-3-3h-3" stroke="#FFFFFF" stroke-width="3" stroke-linecap="round" fill="none" />
  <circle cx="26" cy="36" r="2.5" fill="#FFFFFF" />
  <circle cx="38" cy="36" r="2.5" fill="#FFFFFF" />
  <path d="M28 42c2.5 3 9.5 3 12 0" stroke="#FFFFFF" stroke-width="3" stroke-linecap="round" fill="none" />
</svg>
